<?xml version="1.0" standalone="no"?>
<!DOCTYPE svg PUBLIC "-//W3C//DTD SVG 20010904//EN"
 "http://www.w3.org/TR/2001/REC-SVG-20010904/DTD/svg10.dtd">
<svg version="1.0" xmlns="http://www.w3.org/2000/svg"
 width="227.000000pt" height="227.000000pt" viewBox="0 0 227.000000 227.000000"
 preserveAspectRatio="xMidYMid meet">
<metadata>
Created by potrace 1.14, written by Peter Selinger 2001-2017
</metadata>
<g transform="translate(0.000000,227.000000) scale(0.100000,-0.100000)"
fill="#000000" stroke="none">
<path d="M1025 2205 c-96 -16 -122 -45 -129 -144 -3 -40 -7 -76 -10 -78 -7 -7
-169 -73 -180 -73 -5 0 -30 20 -56 44 -91 85 -145 72 -282 -64 -128 -129 -137
-180 -49 -273 l48 -50 -32 -76 c-18 -42 -35 -84 -38 -93 -5 -13 -18 -18 -49
-19 -24 -1 -47 -2 -53 -4 -5 -1 -20 -3 -33 -3 -33 -3 -78 -52 -92 -100 -14
-53 -14 -218 -1 -269 6 -22 24 -52 40 -67 26 -25 40 -30 106 -34 59 -4 78 -9
82 -21 3 -9 20 -51 38 -93 l32 -77 -25 -23 c-42 -39 -82 -100 -82 -125 0 -42
31 -94 100 -167 132 -141 208 -159 290 -71 45 49 53 49 149 9 l88 -38 7 -75
c9 -112 41 -139 186 -155 65 -8 189 8 230 29 40 21 51 45 57 129 l6 72 87 37
c48 20 91 37 96 37 6 0 26 -16 45 -36 90 -94 159 -83 289 46 129 130 140 199
46 289 -20 19 -36 39 -36 45 0 5 17 49 37 98 l38 88 46 0 c71 0 106 10 134 38
34 34 47 90 47 202 0 192 -37 237 -197 239 -28 1 -33 6 -68 89 -20 49 -37 93
-37 98 0 6 16 26 36 45 99 95 84 161 -69 306 -79 75 -132 101 -180 89 -14 -3
-50 -28 -80 -56 -30 -27 -57 -47 -60 -44 -3 4 -43 21 -89 40 l-83 33 -6 76
c-7 82 -27 116 -79 137 -42 17 -195 24 -265 13z m229 -94 c25 -10 26 -14 26
-78 0 -79 23 -126 65 -137 15 -4 67 -25 115 -47 86 -38 90 -39 124 -25 19 8
55 33 79 55 24 23 49 41 55 41 33 0 192 -161 192 -194 0 -7 -22 -39 -50 -70
-59 -67 -62 -89 -24 -173 14 -32 35 -82 46 -110 26 -70 47 -83 130 -83 46 0
71 -5 81 -15 30 -29 33 -215 5 -268 -7 -13 -22 -17 -74 -17 -100 0 -114 -11
-163 -132 -66 -161 -66 -165 4 -243 24 -27 45 -59 45 -69 0 -23 -162 -186
-185 -186 -9 0 -43 23 -77 51 -74 62 -86 62 -234 0 -121 -51 -134 -67 -134
-165 0 -85 -9 -90 -150 -90 -143 0 -150 4 -150 97 0 89 -12 109 -83 135 -28
11 -78 32 -110 46 -84 38 -106 35 -173 -24 -31 -27 -62 -50 -69 -50 -32 0
-163 123 -188 177 -8 19 -3 29 37 74 72 80 72 98 5 252 -51 115 -66 127 -163
127 -75 0 -80 4 -90 90 -8 66 8 190 26 201 7 5 44 9 81 9 82 0 103 16 136 104
11 31 30 75 41 96 33 66 27 100 -31 170 -38 46 -49 66 -44 81 9 27 131 150
167 168 26 13 29 12 86 -38 72 -62 93 -64 195 -20 40 16 89 37 110 46 56 24
67 46 67 130 0 47 4 75 13 80 35 21 207 24 261 4z"/>
<path d="M1090 1739 c-106 -9 -168 -28 -248 -76 -189 -115 -291 -298 -292
-523 0 -163 57 -298 175 -415 110 -109 250 -167 406 -168 271 0 502 185 574
460 19 74 19 213 0 287 -39 149 -157 299 -290 367 -122 63 -192 78 -325 68z
m16 -226 l-1 -118 -40 3 c-50 3 -135 22 -135 30 0 13 65 120 97 160 22 27 42
42 57 42 22 0 23 -2 22 -117z m139 75 c38 -45 95 -138 95 -156 0 -10 -59 -26
-132 -36 l-38 -5 0 120 c0 111 1 119 19 119 11 0 36 -19 56 -42z m-295 6 c0
-3 -8 -18 -19 -32 -10 -15 -28 -46 -40 -70 -24 -46 -37 -48 -90 -15 l-24 15
33 27 c38 29 121 81 133 81 4 0 7 -3 7 -6z m489 -67 c54 -40 54 -40 30 -52
-56 -29 -65 -28 -86 12 -11 21 -30 55 -43 77 l-23 38 34 -17 c19 -10 58 -35
88 -58z m-645 -114 c47 -23 53 -29 46 -47 -4 -12 -13 -56 -20 -99 l-13 -77
-83 0 c-83 0 -84 0 -84 25 0 33 37 131 69 182 14 24 27 43 28 43 2 0 27 -12
57 -27z m787 -68 c16 -33 32 -82 35 -108 l7 -47 -79 0 -80 0 -12 78 c-7 42
-15 86 -18 98 -4 17 3 25 43 46 57 30 58 29 104 -67z m-186 -103 l7 -52 -116
0 -116 0 0 70 c0 49 4 70 13 70 25 1 89 12 135 24 l47 11 11 -35 c6 -20 15
-59 19 -88z m-380 100 l90 -17 0 -65 0 -65 -117 -3 -117 -3 5 38 c11 77 26
133 37 132 7 0 53 -8 102 -17z m-197 -289 c7 -43 15 -89 18 -103 4 -22 -3 -28
-57 -55 -59 -29 -61 -30 -75 -11 -24 33 -56 128 -63 189 l-7 57 86 0 86 0 12
-77z m288 5 l-1 -73 -30 -3 c-37 -3 -143 -22 -160 -28 -13 -5 -26 40 -40 134
l-7 42 120 0 120 0 -2 -72z m294 55 c0 -27 -21 -138 -28 -150 -5 -8 -23 -8
-67 3 -33 7 -77 14 -97 14 l-38 0 0 75 0 75 115 0 c101 0 115 -2 115 -17z
m223 10 c16 -26 -54 -253 -77 -253 -4 0 -30 12 -58 28 -29 15 -54 28 -56 28
-2 1 4 32 13 68 8 37 15 83 15 102 l0 34 79 0 c44 0 82 -3 84 -7z m-517 -344
l0 -142 -57 61 c-60 66 -127 179 -113 192 12 11 90 28 135 29 l36 1 -1 -141z
m161 130 c36 -6 67 -17 70 -25 8 -20 -53 -119 -113 -182 l-53 -57 -1 138 c0
156 -9 144 97 126z m-295 -216 c12 -13 19 -25 17 -28 -16 -15 -229 119 -229
144 0 5 23 20 52 34 l51 26 44 -77 c24 -42 53 -86 65 -99z m491 151 l52 -27
-46 -41 c-44 -40 -166 -112 -174 -104 -2 2 13 30 35 62 22 32 47 75 57 97 9
21 18 39 20 39 2 0 27 -12 56 -26z"/>
</g>
</svg>
