<svg id="visual" viewBox="0 0 1080 2340" width="1080" height="2340" xmlns="http://www.w3.org/2000/svg" xmlns:xlink="http://www.w3.org/1999/xlink" version="1.1"><rect x="0" y="0" width="1080" height="2340" fill="#ffffff"></rect><path d="M0 343L36 335.5C72 328 144 313 216 312.5C288 312 360 326 432 340C504 354 576 368 648 380.3C720 392.7 792 403.3 864 391C936 378.7 1008 343.3 1044 325.7L1080 308L1080 0L1044 0C1008 0 936 0 864 0C792 0 720 0 648 0C576 0 504 0 432 0C360 0 288 0 216 0C144 0 72 0 36 0L0 0Z" fill="#68a4e9" stroke-linecap="round" stroke-linejoin="miter"></path></svg>