<svg id="visual" viewBox="0 0 675 900" width="675" height="900" xmlns="http://www.w3.org/2000/svg" xmlns:xlink="http://www.w3.org/1999/xlink" version="1.1"><rect x="0" y="0" width="675" height="900" fill="#fff"></rect><path d="M0 108L28.2 108.5C56.3 109 112.7 110 169 116.8C225.3 123.7 281.7 136.3 337.8 136.7C394 137 450 125 506.2 118.8C562.3 112.7 618.7 112.3 646.8 112.2L675 112L675 0L646.8 0C618.7 0 562.3 0 506.2 0C450 0 394 0 337.8 0C281.7 0 225.3 0 169 0C112.7 0 56.3 0 28.2 0L0 0Z" fill="#68a4e9" stroke-linecap="round" stroke-linejoin="miter"></path></svg>