<svg id="visual" viewBox="0 0 1920 1080" width="1920" height="1080" xmlns="http://www.w3.org/2000/svg" xmlns:xlink="http://www.w3.org/1999/xlink" version="1.1"><path d="M0 154L64 160C128 166 256 178 384 179.7C512 181.3 640 172.7 768 162.8C896 153 1024 142 1152 134C1280 126 1408 121 1536 122.7C1664 124.3 1792 132.7 1856 136.8L1920 141L1920 0L1856 0C1792 0 1664 0 1536 0C1408 0 1280 0 1152 0C1024 0 896 0 768 0C640 0 512 0 384 0C256 0 128 0 64 0L0 0Z" fill="#68a4e9" stroke-linecap="round" stroke-linejoin="miter"></path></svg>